<?xml version="1.0" encoding="UTF-8"?>
<!-- Generated by Pixelmator Pro 3.6.18 -->
<svg width="1024" height="1024" viewBox="0 0 1024 1024" xmlns="http://www.w3.org/2000/svg">
    <path id="Path" fill="#010101" stroke="none" d="M 594.875 53.3125 C 595.576233 53.869385 596.277527 54.42627 597 55 C 597.529236 55.414368 598.058472 55.828735 598.60376 56.255615 C 601.768982 60.210083 600.467346 66.254639 600 71 C 598.917175 76.907898 597.214478 82.669067 595.5625 88.4375 C 594.926941 90.712585 594.296082 92.988892 593.66748 95.265869 C 593.278503 96.668579 592.884827 98.070007 592.485474 99.469849 C 586.423157 120.953979 589.679016 144.43866 600 164 C 600.978577 165.349121 601.96875 166.690674 603 168 C 603 168.660034 603 169.320007 603 170 C 603.58783 170.253967 604.175598 170.507874 604.78125 170.769531 C 607.243286 172.134949 608.663391 173.562927 610.5 175.6875 C 611.350769 176.652344 611.350769 176.652344 612.21875 177.636719 C 614.033875 180.044922 615.432495 182.569458 616.896973 185.199463 C 618.74408 188.214661 621.079651 190.75293 623.4375 193.375 C 628.731445 199.394897 633.651245 205.636841 638.45874 212.050293 C 640.933289 215.341553 643.440308 218.552979 646.148438 221.65625 C 648.605835 224.484985 650.738586 227.393127 652.75 230.5625 C 653.322327 231.450684 653.894714 232.338806 654.484375 233.253906 C 656 236 656 236 657.015625 239.152344 C 658.024475 242.070862 658.824646 242.952271 661 245 C 664.234375 250.926392 666.446777 257.122253 668.253906 263.605469 C 668.999817 265.999329 669.932983 268.170593 671 270.4375 C 674.732666 278.589355 676.301636 286.641602 676.789063 295.566406 C 676.850098 298.007141 676.850098 298.007141 678 300 C 678.211426 302.079285 678.369019 304.164124 678.5 306.25 C 678.623779 308.121704 678.623779 308.121704 678.75 310.03125 C 678.916687 312.677124 679.083313 315.322876 679.25 317.96875 C 679.373779 319.840454 679.373779 319.840454 679.5 321.75 C 679.572205 322.899841 679.644409 324.049683 679.71875 325.234375 C 679.830505 327.95636 679.830505 327.95636 681 330 C 681.873962 328.710327 681.873962 328.710327 682.765625 327.394531 C 688.482544 319.101196 694.707092 311.703857 701.660645 304.429199 C 704.114075 301.811157 706.406311 299.054565 708.695313 296.292969 C 710 295 710 295 712 295 C 712.330017 294.01001 712.660034 293.02002 713 292 C 714.601563 290.386719 714.601563 290.386719 716.625 288.6875 C 717.705872 287.769043 717.705872 287.769043 718.808594 286.832031 C 719.531738 286.227478 720.254944 285.622925 721 285 C 722.230896 283.960388 723.460205 282.918884 724.6875 281.875 C 725.536377 281.153748 725.536377 281.153748 726.402344 280.417969 C 727.914673 279.075745 729.336304 277.633301 730.75 276.1875 C 733 274 733 274 736 273 C 736.660034 272.298767 737.320007 271.597534 738 270.875 C 741.951538 266.754333 746.951843 263.610596 752 261 C 753.320007 261 754.640015 261 756 261 C 756 260.339966 756 259.679993 756 259 C 761.246338 256.283508 766.327026 253.715088 772 252 C 772.783752 251.628784 773.567505 251.257507 774.375 250.875 C 777.971436 249.676208 781.287964 249.282227 785 250 C 788.226196 251.745239 790.548828 253.807617 791.875 257.3125 C 791.93689 258.147827 791.93689 258.147827 792 259 C 792.660034 259 793.320007 259 794 259 C 794.027222 260.583252 794.046509 262.166626 794.0625 263.75 C 794.074097 264.631714 794.085693 265.513428 794.097656 266.421875 C 794.007813 268.793823 793.614075 270.722595 793 273 C 793 273.886841 793 274.773743 793 275.6875 C 793 276.450623 793 277.213745 793 278 C 792.669983 278.330017 792.339966 278.660034 792 279 C 787.058044 309.55188 787.644775 341.608643 799.8125 370.5 C 801.84314 375.489136 803.609497 380.558167 805.366455 385.647949 C 806.945251 390.16449 808.626465 394.625732 810.398438 399.070313 C 832.148926 453.685608 836.538513 514.179504 813.089111 569.154053 C 811.772034 572.124512 810.386719 575.061584 809 578 C 808.460205 579.254517 807.925049 580.511047 807.394531 581.769531 C 806.125122 584.710144 804.643433 587.260925 803 590 C 801.980347 592.324829 800.97937 594.657959 800 597 C 798.905396 599.554077 798.075989 600.926453 796.0625 602.875 C 793.658936 605.35144 792.420532 607.874817 791 611 C 792.098145 611.195801 792.098145 611.195801 793.218506 611.395508 C 797.542603 612.335266 801.484375 614.060364 805.5625 615.75 C 806.412659 616.085144 807.262756 616.420288 808.138672 616.765625 C 813.800171 619.110168 817.17926 621.358459 820 627 C 820.755127 634.484985 819.267212 641.019592 817.0625 648.125 C 816.722595 649.246094 816.38269 650.367188 816.032471 651.522217 C 809.979004 670.988892 802.890686 690.13623 795.971191 709.307068 C 795.092896 711.742432 794.217529 714.178772 793.34375 716.615723 C 775.43457 766.538208 755.651245 816.59668 728 862 C 727.604919 862.652405 727.209839 863.304871 726.802734 863.977051 C 699.376343 909.122864 667.798828 950.676575 614.617188 964.921875 C 582.416992 972.774719 547.549072 972.394653 514.5625 972.375 C 512.651428 972.377441 512.651428 972.377441 510.701721 972.379944 C 459.833435 972.372559 404.058899 971.409241 364 936 C 363.05127 935.172424 362.102478 934.344849 361.125 933.492188 C 355.653381 928.630188 350.6203 923.672119 346 918 C 345.581696 917.494019 345.163391 916.988098 344.732422 916.466797 C 333.685791 903.084839 323.763947 889.007996 314.476318 874.355957 C 312.010742 870.466553 312.010742 870.466553 309 867 C 308.004852 867.314514 307.009674 867.629089 305.984375 867.953125 C 294.788513 871.414185 283.554504 874.046082 272 876 C 271.293915 876.120056 270.58783 876.240112 269.860352 876.36377 C 248.213623 879.840332 224.138916 880.127563 203 874 C 201.900269 873.686523 201.900269 873.686523 200.77832 873.366699 C 185.111328 868.741455 171.052094 861.074402 159 850 C 158.510468 849.552856 158.020966 849.105713 157.516602 848.64502 C 135.346069 828.168579 123.393494 800.597656 122.128174 770.613037 C 121.169189 740.411621 131.305511 713.148865 152 691 C 172.567993 671.860779 198.911499 661.573364 227 662 C 226.787964 661.275208 226.575897 660.550476 226.357422 659.803711 C 225.388428 656.457031 224.444153 653.10376 223.5 649.75 C 223.166138 648.610474 222.832275 647.470947 222.488281 646.296875 C 220.876068 640.506104 219.850311 635.61731 220.222656 629.59375 C 220.322357 626.406433 220.376526 624.623779 218.720215 621.879883 C 216.898499 619.9776 215.014343 618.368713 212.9375 616.75 C 211.542175 615.558411 210.148926 614.364441 208.757813 613.167969 C 208.095551 612.615417 207.433289 612.062927 206.750977 611.493652 C 203.422485 608.654297 200.735352 605.395203 198 602 C 197.115204 600.950012 196.229706 599.900574 195.34375 598.851563 C 184.595642 585.963379 175.735535 572.113708 168.4375 557 C 168.031921 556.164551 167.626343 555.329041 167.208496 554.468262 C 162.456299 544.2677 158.353363 532.661377 162.1875 521.5625 C 164.281342 518.602234 165.844452 516.823242 169 515 C 176.306061 513.866333 181.575714 516.693359 188 520 C 187.839203 519.473816 187.678375 518.947632 187.512695 518.405518 C 168.987061 457.21936 172.550842 389.494019 202 332 C 202.428925 331.159668 202.85788 330.319397 203.299805 329.453613 C 209.382599 317.673096 215.821869 306.447632 224 296 C 224.436188 295.440369 224.872375 294.880737 225.321777 294.304199 C 235.140259 281.800476 235.140259 281.800476 241.429688 280.496094 C 242.236633 280.476746 243.043579 280.457397 243.875 280.4375 C 244.676788 280.394958 245.478607 280.352417 246.304688 280.308594 C 250.58374 281.40625 253.210327 283.607483 256 287 C 257.984558 290.764648 259.389709 294.682251 260.8125 298.6875 C 265.435272 310.980713 270.689301 323.033936 278 334 C 278.064697 333.332825 278.129395 332.665649 278.196045 331.978271 C 281.401825 299.774658 288.941284 270.588623 302 241 C 302.353516 240.193726 302.707062 239.38739 303.071289 238.556641 C 316.645844 207.851318 337.008148 180.162476 359.664063 155.554688 C 361.652008 153.380554 363.585327 151.175781 365.5 148.9375 C 371.472748 142.079407 377.982574 135.732971 384.894531 129.828125 C 387.357269 127.689819 389.734863 125.469177 392.125 123.25 C 398.471497 117.466858 405.161377 112.186279 412 107 C 412.922974 106.292297 413.845947 105.584595 414.796875 104.855469 C 421.105194 100.202576 426.824554 96.931519 434.8125 97.0625 C 438.404297 98.118896 439.769043 99.025391 442 102 C 445.202271 108.236023 445.168579 115.47876 445.5 122.355469 C 445.540588 123.138367 445.581207 123.921265 445.623047 124.727844 C 445.751709 127.214233 445.87619 129.700867 446 132.1875 C 445.593567 149.115906 445.593567 149.115906 449 165 C 449.412506 164.249756 449.825012 163.499512 450.25 162.726563 C 454.288025 155.569885 458.692078 149.25708 464 143 C 464.804382 142.011292 465.608765 141.022583 466.4375 140.003906 C 472.913971 132.136169 479.943024 124.843811 487.125 117.625 C 487.598206 117.146606 488.071411 116.668274 488.558929 116.175415 C 489.911041 114.811584 491.271759 113.456421 492.632813 112.101563 C 493.425751 111.310913 494.218689 110.520203 495.035645 109.705566 C 497 108 497 108 499 108 C 499 107.340027 499 106.679993 499 106 C 500.593353 104.564514 502.252502 103.201721 503.9375 101.875 C 507.399536 99.113281 510.766357 96.337097 514 93.3125 C 529.969604 78.977112 548.516724 66.93457 568 58 C 569.001587 57.540527 569.001587 57.540527 570.023438 57.071777 C 586.682861 49.572632 586.682861 49.572632 594.875 53.3125 Z M 200.5 742.8125 C 193.179596 750.741638 191.624756 759.737122 191.722656 770.191406 C 192.415833 779.71051 195.408234 788.053528 202 795 C 202.63681 795.688354 203.27359 796.376709 203.929688 797.085938 C 214.479797 807.481445 227.683289 809.226501 241.819092 809.255371 C 253.426086 809.131714 264.895203 807.373962 276 804 C 273.26593 795.466064 269.950714 787.204468 266.614014 778.891113 C 263.849823 771.950684 261.273071 764.979492 258.890625 757.898438 C 258.371521 756.380676 257.851898 754.863098 257.331787 753.345703 C 256.569672 751.121582 255.819458 748.896729 255.104523 746.656982 C 252.988068 738.728333 252.988068 738.728333 248.056885 732.664063 C 245.704559 731.957214 245.704559 731.957214 242 732 C 241.026764 731.840149 240.053528 731.680298 239.050781 731.515625 C 224.688477 730.122437 211.350372 732.764404 200.5 742.8125 Z"/>
    <path id="path1" fill="#e7e7e7" stroke="none" d="M 584 588 C 585.076843 588.114075 586.153687 588.228149 587.263184 588.345642 C 619.023682 591.733337 650.680359 595.66272 682 602 C 682.812866 602.164185 683.625732 602.328308 684.463196 602.497437 C 721.748657 610.076416 762.74884 618.87439 797 636 C 796.23291 640.544922 794.822144 644.838623 793.367188 649.199219 C 793.09906 650.009277 792.830933 650.819397 792.554688 651.654053 C 791.665649 654.333313 790.771057 657.01062 789.875 659.6875 C 789.408813 661.082275 789.408813 661.082275 788.933228 662.505249 C 773.641663 708.192749 757.558289 753.94281 738 798 C 737.334595 799.513794 737.334595 799.513794 736.655762 801.058105 C 722.052002 834.171387 703.617676 866.432007 680 894 C 679.141418 895.040161 678.28479 896.081909 677.429688 897.125 C 647.640015 933.2771 613.711975 943.955322 568.035156 948.386719 C 565.690491 948.59552 563.345459 948.799988 561 949 C 559.386536 949.144653 559.386536 949.144653 557.740479 949.292236 C 544.788086 950.315735 531.797974 950.286926 518.8125 950.3125 C 517.539978 950.315125 516.267456 950.317749 514.956421 950.320435 C 491.126678 950.325684 467.636719 949.01062 444 946 C 442.112793 945.759766 442.112793 945.759766 440.1875 945.514648 C 417.221802 942.413452 395.183533 935.150146 378 919 C 377.303589 918.345947 376.607178 917.691895 375.889648 917.018066 C 364.757385 906.446838 354.91095 895.48645 346 883 C 344.999634 881.63208 343.998352 880.264893 342.996094 878.898438 C 335.059937 867.975098 327.930878 856.581177 321 845 C 320.49469 844.159851 319.98938 843.319702 319.46875 842.454102 C 297.369202 805.492065 283.235687 765.628601 269.668793 724.970459 C 267.968231 719.875488 266.245667 714.790283 264.476563 709.71875 C 257.807281 690.474609 252.382751 670.850403 246.84375 651.257813 C 246.571289 650.297607 246.298828 649.337341 246.018097 648.348022 C 245.766571 647.453491 245.515015 646.558899 245.255859 645.637207 C 245.03653 644.859253 244.817169 644.081299 244.591187 643.279785 C 243.965607 640.867371 243.466797 638.447693 243 636 C 250.583282 631.973816 258.518311 628.878784 266.5 625.75 C 267.232635 625.462402 267.965271 625.174866 268.720123 624.87854 C 322.270111 603.91333 378.976166 591.778809 436.274414 587.29248 C 438.696533 587.102295 441.117889 586.901428 443.538086 586.687988 C 489.756531 582.661499 537.887146 583.069458 584 588 Z"/>
    <path id="path2" fill="#f8f8f9" stroke="none" d="M 573 80 C 574.517029 83.034058 573.220703 84.882507 572.1875 88.0625 C 564.172974 115.267456 566.323792 145.666504 579.609375 170.753906 C 586.554138 183.353821 594.971741 194.664856 604.542969 205.366211 C 638.985352 243.986877 660.822144 288.518677 657.80957 341.338867 C 657.554138 345.018799 657.27832 348.696777 657 352.375 C 656.349487 361.643982 655.773682 370.894165 655.6875 380.1875 C 655.661377 381.476929 655.661377 381.476929 655.634766 382.79248 C 655.509949 387.056396 655.509949 387.056396 657.392334 390.708008 C 659.459534 392.369263 660.741089 392.495117 663.375 392.5625 C 664.125244 392.605042 664.875488 392.647583 665.648438 392.691406 C 671.49292 390.973022 674.764893 383.317993 677.625 378.3125 C 678.049561 377.58136 678.474182 376.85022 678.911621 376.096924 C 681.228088 372.102539 683.51886 368.093506 685.8125 364.085938 C 705.56897 329.618408 731.577271 298.226318 767 279 C 767.660034 279 768.320007 279 769 279 C 768.931458 279.720886 768.862854 280.441833 768.792236 281.18457 C 766.643066 305.959106 766.331299 331.707458 772 356 C 772.193542 356.872192 772.387024 357.744385 772.586426 358.643066 C 776.540161 375.807861 783.623291 392.008301 790.42627 408.196289 C 810.730591 457.029236 813.132568 510.278076 793.296875 559.660156 C 787.047058 574.570557 778.813721 588.483032 770 602 C 762.144226 601.41333 754.856384 599.006348 747.375 596.6875 C 744.800171 595.897583 742.224243 595.111023 739.648438 594.324219 C 738.391296 593.93927 737.134155 593.554321 735.838867 593.157715 C 729.915527 591.359009 723.958496 589.677979 718 588 C 719.557739 584.817932 721.324341 581.913879 723.25 578.9375 C 742.58844 548.900391 742.58844 548.900391 751.25 514.9375 C 751.288696 513.651672 751.288696 513.651672 751.328125 512.339844 C 751.178345 509.958984 751.178345 509.958984 749.726563 508.21875 C 747.276794 506.489502 744.92981 506.537354 742 506.628906 C 738.957947 507.193359 737.206726 508.923096 735 511 C 734.339966 511 733.679993 511 733 511 C 732.991943 510.382202 732.983826 509.764404 732.975464 509.127808 C 732.604004 481.180298 732.147217 453.242676 731.0625 425.3125 C 731.024963 424.273193 730.987427 423.233887 730.948792 422.163086 C 730.841187 419.22937 730.721558 416.296387 730.597656 413.363281 C 730.552246 412.085815 730.552246 412.085815 730.505981 410.782532 C 730.226929 404.734741 728.914124 399.74231 727 394 C 719.865845 391.621948 713.19696 392.099121 706.353027 395.253906 C 678.586487 409.236572 652.937561 431.34729 633.769531 455.792969 C 632.264648 457.669922 630.713623 459.320068 629 461 C 628.955139 460.338074 628.910278 459.676147 628.864014 458.994141 C 624.645508 397.928284 611.530457 343.312012 570.678711 295.989258 C 547.417358 269.014282 536.747437 243.980103 534.770752 207.893311 C 534.436462 202.597534 533.971191 198.570496 531 194 C 528.214905 191.679077 526.405029 191.055603 522.8125 190.5625 C 504.361023 192.679871 488.67041 211.891296 477.3125 225.375 C 458.787201 248.849548 446.850769 274.171265 437.786133 302.544922 C 436.881104 305.371338 435.947083 308.187439 435 311 C 426.50885 300.937805 421.59787 288.164001 416.589355 276.121582 C 411.71936 263.997864 411.71936 263.997864 402 256 C 397.156311 255.241455 393.321472 255.365723 388.875 257.5 C 387.92627 258.325012 386.977478 259.150024 386 260 C 385.444397 260.478271 384.888824 260.956482 384.316406 261.449219 C 347.408417 295.594849 330.353271 350.90564 324.358643 399.145996 C 324.077454 401.383667 323.760376 403.616821 323.429688 405.847656 C 322.621582 412.354492 322.625916 418.951233 322.4375 425.5 C 322.394226 426.908875 322.350586 428.317749 322.306641 429.726563 C 322.201111 433.15094 322.098999 436.575439 322 440 C 318.994568 438.847046 316.192596 437.634216 313.433594 435.976563 C 300.426819 428.318481 286.691559 421.466797 271.25 424.8125 C 265.27771 428.832275 263.388245 435.832886 261.75 442.625 C 253.178589 489.606079 266.017761 543.661682 291.227051 583.438965 C 291.730927 584.249268 292.234772 585.059631 292.753906 585.894531 C 293.210968 586.614868 293.667999 587.335205 294.138916 588.077393 C 295 590 295 590 294 593 C 291.374023 594.20752 291.374023 594.20752 287.859375 595.382813 C 287.228912 595.598694 286.59845 595.814575 285.948883 596.037048 C 284.591614 596.501282 283.232666 596.960571 281.872223 597.415405 C 278.321655 598.6026 274.782562 599.822327 271.246094 601.050781 C 270.540741 601.295654 269.835419 601.540527 269.108673 601.792847 C 261.977631 604.302307 255.072357 607.284729 248.24707 610.533691 C 247.470734 610.889954 246.694397 611.246216 245.894531 611.613281 C 245.233002 611.930786 244.571472 612.248291 243.889893 612.575439 C 241.304871 613.156189 240.199036 612.378174 238 611 C 225.928894 601.836914 215.999237 590.077515 207 578 C 206.346191 577.13739 206.346191 577.13739 205.679199 576.257324 C 200.712097 569.688293 196.236115 562.998108 192.3125 555.75 C 191.960999 555.105591 191.609467 554.46106 191.247314 553.797119 C 190.429993 552.231812 189.705536 550.618774 189 549 C 189.329987 548.339966 189.660004 547.679993 190 547 C 190.559448 547.44989 191.118896 547.89978 191.695313 548.363281 C 196.946594 552.576172 202.215393 556.766541 207.5 560.9375 C 208.416779 561.664185 208.416779 561.664185 209.352051 562.405518 C 214.162262 566.251343 214.162262 566.251343 220 567.125 C 220.701263 567.127563 221.402496 567.130127 222.125 567.132813 C 224.091553 567.11377 224.091553 567.11377 226 566 C 227.584991 561.170776 227.324768 556.958618 225.226563 552.371094 C 224.376648 550.717529 223.508392 549.073364 222.625 547.4375 C 200.008118 502.635254 190.486908 449.381958 202 400 C 202.214294 399.050598 202.428619 398.101196 202.649414 397.123047 C 209.335358 368.024109 220.440338 334.155273 240 311 C 240.660004 311 241.320007 311 242 311 C 242.220276 311.516846 242.440552 312.033691 242.66748 312.566162 C 252.086823 334.496948 267.217926 367.609009 290 379 C 294.007843 379.392029 294.007843 379.392029 297.666016 378.006104 C 299.793121 374.807251 299.42099 371.36853 299.40625 367.652344 C 299.425903 365.927734 299.445679 364.203125 299.465576 362.478516 C 299.470612 361.573975 299.475616 360.669434 299.480804 359.737549 C 299.925385 294.885193 320.49527 237.195007 362 187 C 362.505493 186.38562 381.91449 163.888428 391.875 153.9375 C 392.751953 153.06134 406.377899 140.005371 413 135 C 414.280029 133.971313 421.728577 128 424 128 C 424.021881 128.840881 424.021881 128.840881 424.044189 129.69873 C 423.561646 174.113647 423.561646 174.113647 437.90625 214.269531 C 440.006042 216.311401 440.006042 216.311401 443.5 216.5 C 447.662903 215.905273 448.360931 215.161377 451 212 C 452.64978 209.020752 452.64978 209.020752 454.101563 205.644531 C 454.674377 204.377686 455.247375 203.110901 455.820557 201.844238 C 456.114807 201.185547 474.458893 164.668701 488 149 C 488.71286 148.156982 513.544922 121.357544 527 111 C 528.147217 110.067078 529.291565 109.130615 530.433594 108.191406 C 543.793518 97.240845 557.544189 87.750122 573 80 Z"/>
    <path id="path3" fill="#bdbcbc" stroke="none" d="M 515 217 C 515.094971 217.759155 515.190002 218.518372 515.287842 219.300537 C 519.796753 254.667847 529.690186 279.108459 553.4375 305.875 C 593.789673 352.087891 611.699097 410.882324 608 472 C 607.551453 477.871338 606.902161 483.718262 606.1875 489.5625 C 606.104919 490.239441 606.022339 490.916382 605.937256 491.61377 C 604.911743 499.809448 603.495728 507.833069 601.615967 515.875977 C 600.705017 520.495972 600.15802 525.335938 601 530 C 602.929077 532.540283 603.660156 532.940918 606.875 533.5 C 611.092834 532.825195 612.216553 531.202515 615 528 C 616.390137 525.566528 617.629211 523.213989 618.8125 520.6875 C 619.506409 519.25647 620.200378 517.825439 620.894531 516.394531 C 621.243408 515.665771 621.592224 514.93689 621.95166 514.186035 C 631.450317 494.37915 642.045166 476.743713 656.421875 460.007813 C 658.174622 457.962952 659.894653 455.908813 661.597656 453.824219 C 663.544373 451.535645 665.398254 449.609253 667.6875 447.6875 C 670.750122 445.08197 673.731323 442.41333 676.6875 439.6875 C 684.840454 432.356079 693.494019 425.835815 702.6875 419.875 C 703.287903 419.484436 703.888245 419.093811 704.506836 418.691406 C 708.747009 416 708.747009 416 711 416 C 713.272583 438.257263 713.343506 460.468201 713.315674 482.817627 C 713.309814 487.932373 713.326904 493.046814 713.350037 498.161499 C 713.364868 502.176147 713.365601 506.190613 713.362488 510.2052 C 713.363037 512.089478 713.368103 513.973633 713.378296 515.857788 C 713.458313 532.607178 711.989685 549.098938 707.0625 565.1875 C 706.823364 566.023438 706.584229 566.859375 706.337891 567.720703 C 704.671387 573.371094 702.515808 578.67627 700 584 C 698.911011 583.783813 697.82196 583.567688 696.699951 583.344971 C 672.221802 578.504883 647.776062 574.007263 623 571 C 622.138184 570.895386 621.276367 570.790771 620.388428 570.682922 C 587.664856 566.747131 554.915222 564.563721 522 563 C 522.458679 561.579346 522.921265 560.160034 523.385498 558.741211 C 523.771301 557.55542 523.771301 557.55542 524.164856 556.345642 C 525.17157 553.518188 526.442566 550.904541 527.803711 548.234863 C 547.609375 509.265869 549.172302 453.484863 536 412 C 524.417542 376.847351 524.417542 376.847351 500 350 C 495.460632 349.062134 492.140198 349.521118 487.875 351.3125 C 467.563721 370.299133 459.063599 408.221558 454.494629 434.447021 C 454.322388 435.427429 454.150116 436.407837 453.972656 437.417969 C 453.760071 438.713867 453.760071 438.713867 453.543213 440.035889 C 453.274323 441.008118 453.274323 441.008118 453 442 C 452.339996 442.330017 451.679993 442.660034 451 443 C 450.561707 442.174988 450.123444 441.349976 449.671875 440.5 C 442.452209 427.35199 433.741302 415.701294 423.5625 404.6875 C 422.983551 404.059143 422.404602 403.430847 421.808105 402.783447 C 417.645599 398.391602 414.355408 395.26593 408.125 394.5625 C 403.57428 394.708984 400.780426 396.580566 397 399 C 396.339996 399 391.986938 404.874695 390.863281 406.914063 C 382.863342 421.615845 376.155029 436.53833 372.469238 452.942871 C 372.146301 454.358704 371.805023 455.770386 371.44873 457.178223 C 364.624878 484.467896 365.792358 514.229309 374 541 C 374.422974 542.486694 374.844971 543.973633 375.265625 545.460938 C 377.494812 552.980957 380.709534 559.644897 384.644531 566.390625 C 386 569 386 569 386 572 C 385.293213 572.120056 384.586365 572.240112 383.858154 572.36377 C 362.954773 575.939941 342.171387 579.956177 321.673828 585.444824 C 319.033142 585.993164 316.687988 586.102966 314 586 C 313.599121 585.102783 313.198181 584.205627 312.785156 583.28125 C 309.619537 576.298889 306.260498 569.522461 302.4375 562.875 C 292.463806 545.381287 286.059326 526.942749 283 507 C 282.864655 506.128418 282.729309 505.256836 282.589844 504.358887 C 280.752625 492.096313 279.724243 479.966431 279.6875 467.5625 C 279.682098 466.456177 279.676697 465.349854 279.671143 464.209961 C 279.729126 457.587646 280.427856 451.435303 282 445 C 300.733337 446.971924 315.95697 461.611328 328.40625 474.46875 C 330.863312 476.829468 331.938538 476.995483 335.4375 477.25 C 338.853149 477.280762 338.853149 477.280762 340.875 475.875 C 344.146851 470.421875 342.740417 463.98877 342.0625 458 C 337.719543 414.80481 344.623291 368.422913 363 329 C 363.463562 328.002502 363.463562 328.002502 363.936523 326.984863 C 372.25061 309.322693 382.471069 293.950317 395 279 C 397.445068 282.023132 399.057007 285.03894 400.636719 288.585938 C 401.127441 289.67511 401.618164 290.764282 402.123779 291.886475 C 402.639801 293.03772 403.155823 294.188904 403.6875 295.375 C 410.143707 309.528564 416.680542 322.221375 427 334 C 427.766998 334.946167 428.533997 335.892334 429.324219 336.867188 C 433.73642 342.204712 433.73642 342.204712 439.75 345.375 C 443.810089 344.906494 445.121307 343.869385 448 341 C 449.259949 337.790283 449.259949 337.790283 449.9375 334.0625 C 450.258179 332.624207 450.582581 331.186768 450.910156 329.75 C 451.081757 328.983032 451.253357 328.216003 451.430176 327.425781 C 459.081055 294.85553 471.375427 263.806885 493 238 C 493.50354 237.389648 494.00708 236.779236 494.525879 236.150391 C 510.337341 217 510.337341 217 515 217 Z"/>
    <path id="path4" fill="#000000" stroke="none" d="M 412.222656 779.382813 C 444.200531 783.851807 475.943237 785.385132 508.202148 785.37561 C 510.70282 785.375 513.20343 785.377502 515.704102 785.380249 C 546.526733 785.391968 577.143188 784.194641 607.75 780.375 C 642.262207 776.100647 642.262207 776.100647 648.25 780.5 C 653.171448 785.914917 654.625061 792.143921 654.332031 799.339844 C 651.806641 819.572388 637.196838 843.849915 624 859 C 623.289734 859.831421 622.579468 860.662903 621.847656 861.519531 C 600.569092 885.864624 571.846558 900.384094 540 905 C 539.34845 905.094971 538.696899 905.189941 538.025635 905.287842 C 520.471375 907.562744 501.453003 907.03418 484 904 C 483.316467 903.881714 482.632935 903.763428 481.928711 903.641602 C 449.276093 897.653503 420.230621 879.040527 399.8125 853 C 388.720184 836.711914 372.257507 810.615479 376 790 C 377.601746 785.194824 379.806488 782.795654 384 780 C 392.803436 775.872009 402.934967 778.034973 412.222656 779.382813 Z"/>
    <path id="path5" fill="#9d9c9d" stroke="none" d="M 495 374 C 501.477325 376.159119 505.084167 386.085266 508.054688 392.023438 C 525.992432 429.501648 530.09967 475.929932 519 516 C 518.802429 516.751343 518.604919 517.502747 518.401367 518.276855 C 516.266479 526.301941 513.318542 534.005249 510.1875 541.6875 C 509.745056 542.791321 509.745056 542.791321 509.293701 543.91748 C 508.276093 546.324463 507.155487 548.655884 506 551 C 505.479797 552.133728 504.959564 553.267456 504.423584 554.435547 C 500.050415 563.223633 500.050415 563.223633 495.142822 565.081787 C 491.594238 565.41626 488.245911 565.333313 484.6875 565.125 C 482.650391 565.083374 480.614105 565.067932 478.576599 565.05426 C 477.10965 565.044006 475.642731 565.026672 474.175964 565.002869 C 464.315674 564.877808 454.511475 565.74408 444.6875 566.5 C 441.149963 566.763672 437.612122 567.022827 434.074219 567.28125 C 432.816071 567.374146 432.816071 567.374146 431.532532 567.468994 C 423.027588 568.088989 414.515869 568.55957 406 569 C 385.896515 530.28125 380.796661 490.224487 393.802246 448.421387 C 397.234802 437.673828 401.182739 427.689575 407 418 C 411.08252 419.560669 413.468658 422.474121 416.1875 425.75 C 416.669434 426.329285 417.151398 426.908569 417.647949 427.505371 C 433.381805 446.787537 442.590515 470.056213 449.817383 493.670898 C 450.065857 494.478149 450.314331 495.285461 450.570313 496.117188 C 450.776733 496.822144 450.983124 497.5271 451.195801 498.253418 C 451.98468 500.368103 451.98468 500.368103 455 502 C 458.34903 502.356262 460.328369 502.363037 463.3125 500.75 C 466.210785 497.744385 466.142242 494.15564 466.394531 490.125 C 468.917816 453.048279 473.731262 405.903137 495 374 Z"/>
    <path id="path6" fill="#000000" stroke="none" d="M 657.664063 647.039063 C 667.859558 655.756042 676.062378 667.436523 678 681 C 679.112976 698.113953 676.815552 713.676514 665.367188 727.242188 C 655.548584 738.088623 643.588379 744.064026 628.953125 745.246094 C 613.840637 745.842651 601.371338 740.199951 590.375 730.125 C 579.417053 718.747437 574.601196 704.741577 574.700928 689.151123 C 575.127563 673.457336 580.892151 660.115356 592.09668 649.119385 C 610.831482 631.988159 637.743713 631.792114 657.664063 647.039063 Z"/>
    <path id="path7" fill="#000000" stroke="none" d="M 430.175781 645.058594 C 441.973938 653.168823 449.798065 665.931152 452.582031 679.925781 C 454.77243 696.036499 451.706696 711.81427 442 725 C 433.441742 735.321655 422.724518 742.019043 409.625 744.6875 C 393.131866 746.109314 380.11908 741.873047 367.3125 731.3125 C 358.398346 723.044067 351.728394 710.863098 350.822998 698.603271 C 350.345825 679.274719 353.168213 664.707764 366.742188 650.101563 C 370.768616 646.35376 375.161957 643.586548 380 641 C 381.210419 640.346436 381.210419 640.346436 382.445313 639.679688 C 397.959259 632.725159 416.296967 636.546509 430.175781 645.058594 Z"/>
    <path id="path8" fill="#e1e1e2" stroke="none" d="M 225.375 682.9375 C 226.206451 682.942017 227.037888 682.946533 227.894531 682.951172 C 229.929718 682.962891 231.964874 682.980835 234 683 C 236.57193 688.645874 238.435883 694.365601 240.1875 700.3125 C 240.460144 701.218079 240.732773 702.123657 241.013672 703.056641 C 243 709.732483 243 709.732483 243 712 C 242.366104 711.984253 241.732208 711.968567 241.079102 711.952393 C 219.649994 711.491211 202.301712 713.63147 186 729 C 175.895264 739.81543 171.613403 754.871948 171.952881 769.45166 C 172.782028 785.890503 178.941467 801.682617 191.226563 813.0625 C 207.951782 826.573425 228.582611 830.546204 249.785889 828.766113 C 252.592697 828.443481 255.389313 828.077759 258.1875 827.6875 C 259.671661 827.487732 259.671661 827.487732 261.185791 827.283936 C 269.514862 826.133545 277.76297 824.685669 286 823 C 287.605225 826.041138 289.208984 829.083008 290.8125 832.125 C 291.264313 832.980957 291.716125 833.836853 292.181641 834.71875 C 294.502502 839.123291 296.796936 843.535278 299 848 C 266.311005 860.742554 226.538132 863.208679 194 849 C 172.523666 838.942261 156.745056 821.394592 148.25 799.3125 C 140.321381 775.44812 140.635468 750.311584 151.246094 727.308594 C 161.789978 707.418457 178.123169 693.764221 199.585938 686.84375 C 208.378296 684.263184 216.237793 682.842773 225.375 682.9375 Z"/>
    <path id="Circle" fill="#eaeaea" fill-rule="evenodd" stroke="none" d="M 429 692.5 C 429 686.148682 423.851288 681 417.5 681 C 411.148712 681 406 686.148682 406 692.5 C 406 698.851318 411.148712 704 417.5 704 C 423.851288 704 429 698.851318 429 692.5 Z"/>
    <path id="Circle-copy-2" fill="#eaeaea" fill-rule="evenodd" stroke="none" d="M 653 693.5 C 653 687.148682 647.851257 682 641.5 682 C 635.148743 682 630 687.148682 630 693.5 C 630 699.851318 635.148743 705 641.5 705 C 647.851257 705 653 699.851318 653 693.5 Z"/>
</svg>
