<svg fill="none" height="800" viewBox="0 0 16 16" width="800" xmlns="http://www.w3.org/2000/svg"><path d="m12.225 12.225h-1.778v-2.785c0-.664-.012-1.519-.925-1.519-.926 0-1.068.724-1.068 1.47v2.834h-1.778v-5.727h1.707v.783h.024c.348-.594.996-.95 1.684-.925 1.802 0 2.135 1.185 2.135 2.728l-.001 3.14zm-7.555-6.51a1.037 1.037 0 0 1 -1.032-1.031c0-.566.466-1.032 1.032-1.032s1.031.466 1.032 1.032c0 .566-.466 1.032-1.032 1.032zm.889 6.51h-1.78v-5.727h1.78zm7.551-10.225h-10.225a.88.88 0 0 0 -.885.866v10.268a.88.88 0 0 0 .885.866h10.226a.882.882 0 0 0 .889-.866v-10.269a.88.88 0 0 0 -.889-.864z" fill="#000"/></svg>